# xmcd
#
# Track frame offsets:
#	150
#	15821
#	33485
#	48274
#	65852
#	81617
#	103008
#	119309
#	135074
#	147812
#	160878
#	178654
#	192247
#	208963
#	219888
#	229283
#
# Disc length: 3313 seconds
#
# Revision: 0
# Processed by: cddbd v1.5.1PL0 Copyright (c) Steve Scherf et al.
# Submitted via: MusicWizard 7.0.2
#
DISCID=df0cef10
DTITLE=Various Artist - The Country Music Album - (C)1985 Arcade/Crown [CD 2/2)
DYEAR=1985
DGENRE=Country
TTITLE0=Dirt Band - An American Dream
TTITLE1=Linda Ronstadt - Blue Bayou
TTITLE2=Ricky Skaggs - Don't Cheat In My Hometown
TTITLE3=Rita Coolidge - Love Has No Pride
TTITLE4=Everly Brothers - Following The Sun
TTITLE5=Karen Brooks - Tonight I'm Here With Someone Else
TTITLE6=Gram Parsons and Emmylou Harris - Love Hurts
TTITLE7=Statler Brothers - One Takes The Blame
TTITLE8=Kenny Rogers - Ruby, Don't Take Your Love To Town
TTITLE9=Don Williams - Lay Down Beside Me
TTITLE10=Eddie Rabbitt and Crystal Gayle - You And I
TTITLE11=Emmylou Harris - Pledging My Love
TTITLE12=Lee Greenwood - Fool's Gold
TTITLE13=Freddy Fender - You're Turnin' Down The Flame Of Love Too Low
TTITLE14=Dolly Parton - I Don't Want You Around Me Anymore
TTITLE15=Bobby Gentry - Ode To Billie Joe
EXTD=The Country Music Album\n(c)1985 Arcade/Crown\nOrder-No:ADEH 168\nThe album has been compiled
EXTD=in association with: CBS/EMI/Phonogram/MCA/WEA\n
EXTT0=
EXTT1=
EXTT2=
EXTT3=
EXTT4=
EXTT5=
EXTT6=
EXTT7=
EXTT8=
EXTT9=
EXTT10=
EXTT11=
EXTT12=
EXTT13=
EXTT14=
EXTT15=
PLAYORDER=
